<?xml version="1.0" encoding="UTF-8"?><svg id="Calque_1" xmlns="http://www.w3.org/2000/svg" viewBox="0 0 15.57 24"><defs><style>.cls-1{fill:#251f20;stroke-width:0px;}</style></defs><path class="cls-1" d="M7.78,19.03c-.44,0-.88-.17-1.21-.5L.98,12.94c-.39-.39-.39-1.02,0-1.41s1.02-.39,1.41,0l5.39,5.39,5.38-5.39c.39-.39,1.02-.39,1.41,0s.39,1.02,0,1.41l-5.58,5.59c-.33.33-.77.5-1.21.5Z"/><path class="cls-1" d="M7.78,13.95c-.55,0-1-.45-1-1V1c0-.55.45-1,1-1s1,.45,1,1v11.95c0,.55-.45,1-1,1Z"/><path class="cls-1" d="M14.57,24H1c-.55,0-1-.45-1-1s.45-1,1-1h13.57c.55,0,1,.45,1,1s-.45,1-1,1Z"/></svg>