<?xml version="1.0" encoding="UTF-8"?><svg id="Calque_1" xmlns="http://www.w3.org/2000/svg" viewBox="0 0 38.43 27"><defs><style>.cls-1{fill:#251f20;stroke-width:0px;}</style></defs><path class="cls-1" d="M19.21,27c-3.13,0-6.12-1.16-8.43-3.27-.41-.37-.44-1-.06-1.41.37-.41,1-.44,1.41-.06,1.94,1.77,4.45,2.75,7.08,2.75,5.79,0,10.5-4.71,10.5-10.5,0-.55.45-1,1-1s1,.45,1,1c0,6.89-5.61,12.5-12.5,12.5Z"/><path class="cls-1" d="M37.43,16.44c-.26,0-.51-.1-.71-.29l-6-6-6,6c-.39.39-1.02.39-1.41,0s-.39-1.02,0-1.41l6.15-6.15c.7-.7,1.83-.7,2.53,0l6.15,6.15c.39.39.39,1.02,0,1.41-.2.2-.45.29-.71.29Z"/><path class="cls-1" d="M7.71,13.5c-.55,0-1-.45-1-1C6.71,5.61,12.32,0,19.21,0c2.51,0,4.92.74,6.99,2.14.46.31.58.93.27,1.39-.31.46-.93.58-1.39.27-1.74-1.17-3.77-1.79-5.87-1.79-5.79,0-10.5,4.71-10.5,10.5,0,.55-.45,1-1,1Z"/><path class="cls-1" d="M7.71,18.94c-.48,0-.93-.19-1.27-.52L.29,12.27c-.39-.39-.39-1.02,0-1.41s1.02-.39,1.41,0l6,6,6-6c.39-.39,1.02-.39,1.41,0s.39,1.02,0,1.41l-6.15,6.15c-.34.34-.79.52-1.27.52Z"/></svg>